<svg width="14" height="14" viewBox="0 0 14 14" fill="none" xmlns="http://www.w3.org/2000/svg">
<g clip-path="url(#clip0_1_105)">
<path d="M7.0833 11.7467L10.1282 8.70189L9.24997 7.82371L7.70829 9.36539V5.65704H6.45832V9.36539L4.91664 7.82371L4.03845 8.70189L7.0833 11.7467V11.7467M1.24997 3.66984V12.6602C1.24997 12.735 1.27401 12.7964 1.32209 12.8445C1.37017 12.8926 1.43161 12.9166 1.5064 12.9166H12.6602C12.735 12.9166 12.7964 12.8926 12.8445 12.8445C12.8926 12.7964 12.9166 12.735 12.9166 12.6602V3.66984H1.24997V3.66984M1.57051 14.1666C1.15491 14.1666 0.789261 14.0088 0.473557 13.693C0.157852 13.3773 0 13.0117 0 12.5961V2.92147C0 2.74306 0.0285789 2.57292 0.0857366 2.41106C0.142894 2.2492 0.228631 2.0999 0.342946 1.96315L1.51283 0.548073C1.64958 0.369655 1.82052 0.233705 2.02564 0.140223C2.23077 0.0467411 2.44765 0 2.67628 0H11.4743C11.7029 0 11.9211 0.0467411 12.1289 0.140223C12.3367 0.233705 12.509 0.369655 12.6458 0.548073L13.8237 1.97917C13.938 2.11593 14.0237 2.26657 14.0809 2.43109C14.138 2.59562 14.1666 2.7671 14.1666 2.94551V12.5961C14.1666 13.0117 14.0088 13.3773 13.693 13.693C13.3773 14.0088 13.0117 14.1666 12.5961 14.1666H1.57051V14.1666M1.57529 2.41987H12.5833L11.6746 1.33812C11.6479 1.31141 11.6172 1.29004 11.5825 1.27401C11.5478 1.25798 11.5117 1.24997 11.4743 1.24997H2.68429C2.6469 1.24997 2.61084 1.25798 2.57611 1.27401C2.54139 1.29004 2.51067 1.31141 2.48396 1.33812L1.57529 2.41987V2.41987M7.0833 8.29324V8.29324V8.29324V8.29324V8.29324V8.29324V8.29324V8.29324V8.29324V8.29324" fill="#1A1C1C"/>
</g>
<defs>
<clipPath id="clip0_1_105">
<rect width="14" height="14" fill="white"/>
</clipPath>
</defs>
</svg>
