<svg width="14" height="14" viewBox="0 0 14 14" fill="none" xmlns="http://www.w3.org/2000/svg">
<g clip-path="url(#clip0_1_103)">
<path d="M1.5064 14.1666C1.08546 14.1666 0.72916 14.0208 0.437496 13.7291C0.145832 13.4374 0 13.0811 0 12.6602V1.5064C0 1.08546 0.145832 0.72916 0.437496 0.437496C0.72916 0.145832 1.08546 0 1.5064 0H12.6602C13.0811 0 13.4374 0.145832 13.7291 0.437496C14.0208 0.72916 14.1666 1.08546 14.1666 1.5064V12.6602C14.1666 13.0811 14.0208 13.4374 13.7291 13.7291C13.4374 14.0208 13.0811 14.1666 12.6602 14.1666H1.5064V14.1666M1.5064 12.9166H12.6602C12.735 12.9166 12.7964 12.8926 12.8445 12.8445C12.8926 12.7964 12.9166 12.735 12.9166 12.6602V10.2564H10.1762C9.81299 10.7841 9.36187 11.1939 8.82288 11.4855C8.28389 11.7772 7.70403 11.923 7.0833 11.923C6.46258 11.923 5.88272 11.7772 5.34373 11.4855C4.80473 11.1939 4.35362 10.7841 3.99037 10.2564H1.24997V12.6602C1.24997 12.735 1.27401 12.7964 1.32209 12.8445C1.37017 12.8926 1.43161 12.9166 1.5064 12.9166V12.9166M7.0833 10.6731C7.61108 10.6731 8.09025 10.5203 8.5208 10.2147C8.95136 9.90918 9.24997 9.5064 9.41664 9.0064H12.9166V1.5064C12.9166 1.43161 12.8926 1.37017 12.8445 1.32209C12.7964 1.27401 12.735 1.24997 12.6602 1.24997H1.5064C1.43161 1.24997 1.37017 1.27401 1.32209 1.32209C1.27401 1.37017 1.24997 1.43161 1.24997 1.5064V9.0064H4.74997C4.91664 9.5064 5.21525 9.90918 5.6458 10.2147C6.07636 10.5203 6.55553 10.6731 7.0833 10.6731V10.6731M1.5064 12.9166C1.43161 12.9166 1.37017 12.9166 1.32209 12.9166C1.27401 12.9166 1.24997 12.9166 1.24997 12.9166V12.9166H3.99037C4.35362 12.9166 4.80473 12.9166 5.34373 12.9166C5.88272 12.9166 6.46258 12.9166 7.0833 12.9166C7.70403 12.9166 8.28389 12.9166 8.82288 12.9166C9.36187 12.9166 9.81299 12.9166 10.1762 12.9166H12.9166V12.9166C12.9166 12.9166 12.8926 12.9166 12.8445 12.9166C12.7964 12.9166 12.735 12.9166 12.6602 12.9166H1.5064V12.9166" fill="black"/>
</g>
<defs>
<clipPath id="clip0_1_103">
<rect width="14" height="14" fill="white"/>
</clipPath>
</defs>
</svg>
