<svg width="14" height="14" viewBox="0 0 14 14" fill="none" xmlns="http://www.w3.org/2000/svg">
<g clip-path="url(#clip0_1_104)">
<path d="M3.79805 11.0576C4.00745 11.0576 4.18266 10.9871 4.32369 10.8461C4.46471 10.7051 4.53522 10.5299 4.53522 10.3205C4.53522 10.1111 4.46471 9.93586 4.32369 9.79484C4.18266 9.65381 4.00745 9.5833 3.79805 9.5833C3.58865 9.5833 3.41344 9.65381 3.27241 9.79484C3.13139 9.93586 3.06088 10.1111 3.06088 10.3205C3.06088 10.5299 3.13139 10.7051 3.27241 10.8461C3.41344 10.9871 3.58865 11.0576 3.79805 11.0576V11.0576M3.79805 7.82048C4.00745 7.82048 4.18266 7.74996 4.32369 7.60894C4.46471 7.46791 4.53522 7.2927 4.53522 7.0833C4.53522 6.8739 4.46471 6.69869 4.32369 6.55767C4.18266 6.41664 4.00745 6.34613 3.79805 6.34613C3.58865 6.34613 3.41344 6.41664 3.27241 6.55767C3.13139 6.69869 3.06088 6.8739 3.06088 7.0833C3.06088 7.2927 3.13139 7.46791 3.27241 7.60894C3.41344 7.74996 3.58865 7.82048 3.79805 7.82048V7.82048M3.79805 4.5833C4.00745 4.5833 4.18266 4.51279 4.32369 4.37177C4.46471 4.23074 4.53522 4.05553 4.53522 3.84613C4.53522 3.63673 4.46471 3.46152 4.32369 3.32049C4.18266 3.17947 4.00745 3.10896 3.79805 3.10896C3.58865 3.10896 3.41344 3.17947 3.27241 3.32049C3.13139 3.46152 3.06088 3.63673 3.06088 3.84613C3.06088 4.05553 3.13139 4.23074 3.27241 4.37177C3.41344 4.51279 3.58865 4.5833 3.79805 4.5833V4.5833M6.3301 10.9455H11.0737V9.69549H6.3301V10.9455V10.9455M6.3301 7.70829H11.0737V6.45832H6.3301V7.70829V7.70829M6.3301 4.47112H11.0737V3.22115H6.3301V4.47112V4.47112M1.5064 14.1666C1.08546 14.1666 0.72916 14.0208 0.437496 13.7291C0.145832 13.4374 0 13.0811 0 12.6602V1.5064C0 1.08546 0.145832 0.72916 0.437496 0.437496C0.72916 0.145832 1.08546 0 1.5064 0H12.6602C13.0811 0 13.4374 0.145832 13.7291 0.437496C14.0208 0.72916 14.1666 1.08546 14.1666 1.5064V12.6602C14.1666 13.0811 14.0208 13.4374 13.7291 13.7291C13.4374 14.0208 13.0811 14.1666 12.6602 14.1666H1.5064V14.1666M1.5064 12.9166H12.6602C12.7243 12.9166 12.7831 12.8899 12.8365 12.8365C12.8899 12.7831 12.9166 12.7243 12.9166 12.6602V1.5064C12.9166 1.44229 12.8899 1.38353 12.8365 1.3301C12.7831 1.27668 12.7243 1.24997 12.6602 1.24997H1.5064C1.44229 1.24997 1.38353 1.27668 1.3301 1.3301C1.27668 1.38353 1.24997 1.44229 1.24997 1.5064V12.6602C1.24997 12.7243 1.27668 12.7831 1.3301 12.8365C1.38353 12.8899 1.44229 12.9166 1.5064 12.9166V12.9166M1.24997 1.24997V1.24997C1.24997 1.24997 1.24997 1.27401 1.24997 1.32209C1.24997 1.37017 1.24997 1.43161 1.24997 1.5064V12.6602C1.24997 12.735 1.24997 12.7964 1.24997 12.8445C1.24997 12.8926 1.24997 12.9166 1.24997 12.9166V12.9166C1.24997 12.9166 1.24997 12.8926 1.24997 12.8445C1.24997 12.7964 1.24997 12.735 1.24997 12.6602V1.5064C1.24997 1.43161 1.24997 1.37017 1.24997 1.32209C1.24997 1.27401 1.24997 1.24997 1.24997 1.24997V1.24997" fill="#1A1C1C"/>
</g>
<defs>
<clipPath id="clip0_1_104">
<rect width="14" height="14" fill="white"/>
</clipPath>
</defs>
</svg>
